<?xml version="1.0" encoding="UTF-8" standalone="no"?><!DOCTYPE svg PUBLIC "-//W3C//DTD SVG 1.1//EN" "http://www.w3.org/Graphics/SVG/1.1/DTD/svg11.dtd"><svg width="100%" height="100%" viewBox="0 0 10625 5630" version="1.1" xmlns="http://www.w3.org/2000/svg" xmlns:xlink="http://www.w3.org/1999/xlink" xml:space="preserve" xmlns:serif="http://www.serif.com/" style="fill-rule:evenodd;clip-rule:evenodd;stroke-linejoin:round;stroke-miterlimit:2;"><rect id="Artboard1" x="0" y="0" width="10623.5" height="5627.67" style="fill:none;"/><g><g id="logo-texto"><rect x="0.746" y="3.383" width="10623.5" height="5627.67" style="fill:#444;"/><path d="M1425.96,1957.37c17.863,-30.833 46.684,-72.692 91.229,-113.454c39.359,-36.009 78.18,-59.425 107.884,-74.409c-8.071,18.959 -16.65,43.992 -21.738,74.184c-6.179,36.683 -5.05,68.3 -2.429,91.354l275.279,-17.138c7.567,-18.504 19.634,-42.27 39.063,-66.562c31.3,-39.146 66.804,-61.075 89.287,-72.534c5.104,19.063 11.755,54.15 3.717,96.721c-6.375,33.646 -19.446,58.938 -29.083,74.392c-184.409,2.483 -368.8,4.962 -553.209,7.446" style="fill:#ee9400;fill-rule:nonzero;"/><path d="M1052.67,2358.18c-81.929,83.125 -199.813,205.871 -336.513,360.038c-109.825,123.833 -208.383,241.542 -237.446,278.646c-84.254,107.566 -263.595,404.687 -193.508,1142.9l20.971,1502.6l857.017,0c306.458,-324.513 612.895,-649.025 919.354,-973.525c33.683,-167.654 67.362,-335.292 101.041,-502.95c208.854,-9.496 396.2,-126.075 486.271,-305.834c108.783,-217.05 58.229,-491.32 -129.083,-669.895l-304.913,-435.592c-19.046,-20.521 -298.871,-327.271 -208.316,-476.613c7.083,-11.683 14.396,-26.929 29.725,-33.02c15.504,-6.18 41.058,-3.213 70.57,-2.555c49.376,1.08 100.955,8.25 201.667,37.729c55.954,16.388 124.95,49.251 211.267,73.713c99.533,28.212 187.154,0.904 200.141,-35.417c14.08,-39.337 -51.058,-117.396 -174.012,-169.304c-32.9,-8.612 -67.813,-16.058 -104.688,-21.771c-197.379,-30.591 -370.329,0.642 -496.145,39.009c6.979,-18.263 15.608,-44.809 21.025,-77.638c8.108,-49.062 17.637,-106.842 -4.425,-142.95c-35.246,-57.658 -144.134,-48.717 -311.009,-35c-107.916,8.871 -161.875,13.317 -218.508,35.05c-121.354,46.579 -179.671,155.729 -249.65,203.3c-75.246,51.113 -159.479,20.675 -206.392,17.342c-140.85,-10.017 -212.221,-60.85 -410.883,-118.192c-84.15,-24.271 -155.104,-60.817 -197.292,-47.258c-25.783,8.283 -68.596,77.308 -59.912,145.937c12.029,95.138 128.104,143.246 177.533,163.717c77.863,32.275 130.192,28.383 344.288,37.325c87.658,3.646 158.437,7.621 201.825,10.208" style="fill:#fcf877;fill-rule:nonzero;"/><path d="M2090.49,3085.35c-1.996,-27.221 -29.929,-343.8 -268.488,-457.933c-36.946,-17.659 -93.179,-52.621 -165.208,-38.854c-40.192,7.675 -68.454,36.508 -94.063,59.237c-309.829,274.979 0.33,1038.71 23.384,1093.96c114.254,288.817 410,461.667 707.362,419.409c273.838,-38.909 497.604,-252.9 552.863,-532.242c6.408,-38.229 16.737,-132.517 -31.875,-232.325c-81.475,-167.342 -253.713,-208.542 -276.788,-213.263c7.329,-31.354 24.704,-142.12 -38.958,-249.1c-51.179,-86.004 -176.683,-199.808 -294.633,-151.283c-94.288,38.804 -153.334,168.804 -113.596,302.396" style="fill:#fdc5c1;fill-rule:nonzero;"/><g opacity="0.5"><path d="M1696.58,2758.74c17.813,-2.863 47.05,11.737 69.238,36.37c55.12,61.234 134.55,117.084 258.179,541.217c18.729,64.271 63.471,222.221 12.204,266.458c-24.704,21.338 -57.188,30.28 -57.188,30.28c-28.629,7.862 -52.933,5.345 -66.112,3c-29.738,-7.655 -70.954,-22.046 -112.654,-51.125c-111.217,-77.5 -140.246,-199.688 -175.959,-349.967c-36.82,-155.033 -64.062,-277.621 1.913,-392.05c22.533,-39.079 43.558,-79.879 70.379,-84.183" style="fill:#dc3599;fill-rule:nonzero;"/></g><g opacity="0.48"><path d="M2423.69,3117.35c3.383,55.746 -27.5,123.196 -82.242,140.558c-74.496,23.646 -168.175,-53.42 -177.846,-140.558c-6.7,-60.275 25.988,-132.775 82.221,-150.121c75.696,-23.35 172.379,59.913 177.867,150.121" style="fill:#dc3599;fill-rule:nonzero;"/></g><path d="M1148.28,5642.38c2.45,-90.437 19.079,-259.079 115.054,-441.737c83.713,-159.321 191.821,-260.884 259.704,-315.592c84.634,-277.654 198.175,-454.667 289.288,-443.8c16.683,1.979 85.904,16.612 141.371,220.258c32.329,-8.175 80.679,-13.646 128.854,7.346c51.041,22.238 77.467,63.558 107.829,110.988c28.229,44.116 43.875,84.583 52.604,111.77c153.508,-99.65 303.317,-100.087 357.483,-33.191c33.213,40.987 40.142,119.216 4.134,158.125c-59.846,64.633 -201.529,-18.854 -243.263,32.862c-21.2,26.267 -15.35,85.817 72.309,220.263c7.17,-3.996 89.095,-47.917 167.654,-6.584c74.204,39.046 111.008,136.08 84.704,169.638c-36.404,46.458 -188.767,-35.088 -215.779,9.704c-8.492,14.046 2.446,28.838 19.304,90.225c12.587,45.8 19.287,84.183 23.021,109.725l-1364.27,0Z" style="fill:#fdc5c1;fill-rule:nonzero;"/><path d="M646.092,2794.76c-44.029,43.005 -469.584,310.138 -360.884,1327.64c81.838,-69.809 171.18,-155.071 260.917,-257.829c70.279,-80.471 129.567,-158.767 179.375,-231.513c-75.521,-47.479 -151.042,-94.946 -226.579,-142.412c57.329,-64.859 114.671,-129.721 171.996,-194.584c-14.634,-62.637 -27.292,-136.129 -33.192,-218.733c-7.796,-108.713 -1.875,-204.496 8.367,-282.567" style="fill:#ee9400;fill-rule:nonzero;"/><g><text x="2979.39px" y="4639.81px" style="font-family:'Apple-Chancery', 'Apple Chancery', cursive;font-style:italic;font-size:399.306px;fill:#eee;fill-opacity:0.5;">Deixando a baleia azul para os amadores!</text></g><g><g><text x="3389.76px" y="2201.04px" style="font-family:'Skia-Regular', 'Skia', sans-serif;font-size:468.75px;fill:#fc9706;">Vaca amarela pulou a janela.</text></g><text x="4168.3px" y="2721.88px" style="font-family:'Skia-Regular', 'Skia', sans-serif;font-size:434.028px;fill:#fc9706;">Quem falar primeiro ... !</text></g></g></g></svg>